<mxfile host="app.diagrams.net" modified="2024-01-07T05:52:36.297Z" agent="Mozilla/5.0 (Windows NT 10.0; Win64; x64) AppleWebKit/537.36 (KHTML, like Gecko) Chrome/120.0.0.0 Safari/537.36" version="22.1.17" etag="7zHAtVvKPRMKRtEJiWxk" type="github">
  <diagram name="Page-1" id="B1iqU7LjpZSeKpV_n0L8">
    <mxGraphModel>
      <root>
        <mxCell id="0" />
        <mxCell id="1" parent="0" />
      </root>
    </mxGraphModel>
  </diagram>
</mxfile>
